<svg xmlns="http://www.w3.org/2000/svg" width="1200" height="630" viewBox="0 0 1200 630">
  <rect width="1200" height="630" fill="#181425"/>
  <rect x="20" y="20" width="1160" height="590" fill="none" stroke="#5be37a" stroke-width="6"/>
  <rect x="20" y="20" width="1160" height="590" fill="none" stroke="#f4f4f4" stroke-width="2"/>
  <text x="80" y="250" font-family="monospace" font-size="92" font-weight="700" fill="#f4f4f4">Yonghao Lee</text>
  <text x="84" y="322" font-family="monospace" font-size="34" fill="#9aa0b4">Computer science &amp; math</text>
  <text x="84" y="374" font-family="monospace" font-size="34" fill="#9aa0b4">ML &#183; vision &#183; signal processing</text>
  <text x="80" y="540" font-family="monospace" font-size="40" font-weight="700" fill="#5be37a">chicoryman.com</text>
    <rect x="896" y="150" width="24" height="24" fill="#ffb04d"/>
    <rect x="1112" y="150" width="24" height="24" fill="#ffb04d"/>
    <rect x="896" y="174" width="24" height="24" fill="#ffb04d"/>
    <rect x="920" y="174" width="24" height="24" fill="#ffb04d"/>
    <rect x="1088" y="174" width="24" height="24" fill="#ffb04d"/>
    <rect x="1112" y="174" width="24" height="24" fill="#ffb04d"/>
    <rect x="896" y="198" width="24" height="24" fill="#ffb04d"/>
    <rect x="920" y="198" width="24" height="24" fill="#ffb04d"/>
    <rect x="944" y="198" width="24" height="24" fill="#ffb04d"/>
    <rect x="968" y="198" width="24" height="24" fill="#ffb04d"/>
    <rect x="1040" y="198" width="24" height="24" fill="#ffb04d"/>
    <rect x="1064" y="198" width="24" height="24" fill="#ffb04d"/>
    <rect x="1088" y="198" width="24" height="24" fill="#ffb04d"/>
    <rect x="1112" y="198" width="24" height="24" fill="#ffb04d"/>
    <rect x="896" y="222" width="24" height="24" fill="#ffb04d"/>
    <rect x="920" y="222" width="24" height="24" fill="#ffb04d"/>
    <rect x="944" y="222" width="24" height="24" fill="#ffb04d"/>
    <rect x="968" y="222" width="24" height="24" fill="#ffb04d"/>
    <rect x="992" y="222" width="24" height="24" fill="#ffb04d"/>
    <rect x="1016" y="222" width="24" height="24" fill="#ffb04d"/>
    <rect x="1040" y="222" width="24" height="24" fill="#ffb04d"/>
    <rect x="1064" y="222" width="24" height="24" fill="#ffb04d"/>
    <rect x="1088" y="222" width="24" height="24" fill="#ffb04d"/>
    <rect x="1112" y="222" width="24" height="24" fill="#ffb04d"/>
    <rect x="872" y="246" width="24" height="24" fill="#ffb04d"/>
    <rect x="896" y="246" width="24" height="24" fill="#ffb04d"/>
    <rect x="920" y="246" width="24" height="24" fill="#ffb04d"/>
    <rect x="944" y="246" width="24" height="24" fill="#ffb04d"/>
    <rect x="968" y="246" width="24" height="24" fill="#ffb04d"/>
    <rect x="992" y="246" width="24" height="24" fill="#ffb04d"/>
    <rect x="1016" y="246" width="24" height="24" fill="#ffb04d"/>
    <rect x="1040" y="246" width="24" height="24" fill="#ffb04d"/>
    <rect x="1064" y="246" width="24" height="24" fill="#ffb04d"/>
    <rect x="1088" y="246" width="24" height="24" fill="#ffb04d"/>
    <rect x="1112" y="246" width="24" height="24" fill="#ffb04d"/>
    <rect x="1136" y="246" width="24" height="24" fill="#ffb04d"/>
    <rect x="872" y="270" width="24" height="24" fill="#ffb04d"/>
    <rect x="896" y="270" width="24" height="24" fill="#ffb04d"/>
    <rect x="920" y="270" width="24" height="24" fill="#5be37a"/>
    <rect x="944" y="270" width="24" height="24" fill="#ffb04d"/>
    <rect x="968" y="270" width="24" height="24" fill="#ffb04d"/>
    <rect x="992" y="270" width="24" height="24" fill="#ffb04d"/>
    <rect x="1016" y="270" width="24" height="24" fill="#ffb04d"/>
    <rect x="1040" y="270" width="24" height="24" fill="#ffb04d"/>
    <rect x="1064" y="270" width="24" height="24" fill="#ffb04d"/>
    <rect x="1088" y="270" width="24" height="24" fill="#5be37a"/>
    <rect x="1112" y="270" width="24" height="24" fill="#ffb04d"/>
    <rect x="1136" y="270" width="24" height="24" fill="#ffb04d"/>
    <rect x="872" y="294" width="24" height="24" fill="#ffb04d"/>
    <rect x="896" y="294" width="24" height="24" fill="#ffb04d"/>
    <rect x="920" y="294" width="24" height="24" fill="#ffb04d"/>
    <rect x="944" y="294" width="24" height="24" fill="#ffb04d"/>
    <rect x="968" y="294" width="24" height="24" fill="#ffb04d"/>
    <rect x="992" y="294" width="24" height="24" fill="#ffb04d"/>
    <rect x="1016" y="294" width="24" height="24" fill="#ffb04d"/>
    <rect x="1040" y="294" width="24" height="24" fill="#ffb04d"/>
    <rect x="1064" y="294" width="24" height="24" fill="#ffb04d"/>
    <rect x="1088" y="294" width="24" height="24" fill="#ffb04d"/>
    <rect x="1112" y="294" width="24" height="24" fill="#ffb04d"/>
    <rect x="1136" y="294" width="24" height="24" fill="#ffb04d"/>
    <rect x="872" y="318" width="24" height="24" fill="#ffb04d"/>
    <rect x="896" y="318" width="24" height="24" fill="#ffb04d"/>
    <rect x="920" y="318" width="24" height="24" fill="#ffb04d"/>
    <rect x="944" y="318" width="24" height="24" fill="#ffb04d"/>
    <rect x="968" y="318" width="24" height="24" fill="#ffb04d"/>
    <rect x="992" y="318" width="24" height="24" fill="#ff5d9e"/>
    <rect x="1016" y="318" width="24" height="24" fill="#ff5d9e"/>
    <rect x="1040" y="318" width="24" height="24" fill="#ffb04d"/>
    <rect x="1064" y="318" width="24" height="24" fill="#ffb04d"/>
    <rect x="1088" y="318" width="24" height="24" fill="#ffb04d"/>
    <rect x="1112" y="318" width="24" height="24" fill="#ffb04d"/>
    <rect x="1136" y="318" width="24" height="24" fill="#ffb04d"/>
    <rect x="872" y="342" width="24" height="24" fill="#ffb04d"/>
    <rect x="896" y="342" width="24" height="24" fill="#ffb04d"/>
    <rect x="920" y="342" width="24" height="24" fill="#ffb04d"/>
    <rect x="944" y="342" width="24" height="24" fill="#ffb04d"/>
    <rect x="968" y="342" width="24" height="24" fill="#ffb04d"/>
    <rect x="992" y="342" width="24" height="24" fill="#ffb04d"/>
    <rect x="1016" y="342" width="24" height="24" fill="#ffb04d"/>
    <rect x="1040" y="342" width="24" height="24" fill="#ffb04d"/>
    <rect x="1064" y="342" width="24" height="24" fill="#ffb04d"/>
    <rect x="1088" y="342" width="24" height="24" fill="#ffb04d"/>
    <rect x="1112" y="342" width="24" height="24" fill="#ffb04d"/>
    <rect x="1136" y="342" width="24" height="24" fill="#ffb04d"/>
    <rect x="896" y="366" width="24" height="24" fill="#ffb04d"/>
    <rect x="920" y="366" width="24" height="24" fill="#ffb04d"/>
    <rect x="944" y="366" width="24" height="24" fill="#ffb04d"/>
    <rect x="968" y="366" width="24" height="24" fill="#ffb04d"/>
    <rect x="992" y="366" width="24" height="24" fill="#ffb04d"/>
    <rect x="1016" y="366" width="24" height="24" fill="#ffb04d"/>
    <rect x="1040" y="366" width="24" height="24" fill="#ffb04d"/>
    <rect x="1064" y="366" width="24" height="24" fill="#ffb04d"/>
    <rect x="1088" y="366" width="24" height="24" fill="#ffb04d"/>
    <rect x="1112" y="366" width="24" height="24" fill="#ffb04d"/>
    <rect x="896" y="390" width="24" height="24" fill="#ffb04d"/>
    <rect x="920" y="390" width="24" height="24" fill="#ffb04d"/>
    <rect x="944" y="390" width="24" height="24" fill="#ffb04d"/>
    <rect x="968" y="390" width="24" height="24" fill="#ffb04d"/>
    <rect x="992" y="390" width="24" height="24" fill="#ffb04d"/>
    <rect x="1016" y="390" width="24" height="24" fill="#ffb04d"/>
    <rect x="1040" y="390" width="24" height="24" fill="#ffb04d"/>
    <rect x="1064" y="390" width="24" height="24" fill="#ffb04d"/>
    <rect x="1088" y="390" width="24" height="24" fill="#ffb04d"/>
    <rect x="1112" y="390" width="24" height="24" fill="#ffb04d"/>
    <rect x="1136" y="390" width="24" height="24" fill="#ffb04d"/>
    <rect x="896" y="414" width="24" height="24" fill="#ffb04d"/>
    <rect x="920" y="414" width="24" height="24" fill="#ffb04d"/>
    <rect x="944" y="414" width="24" height="24" fill="#ffb04d"/>
    <rect x="968" y="414" width="24" height="24" fill="#ffb04d"/>
    <rect x="992" y="414" width="24" height="24" fill="#ffb04d"/>
    <rect x="1016" y="414" width="24" height="24" fill="#ffb04d"/>
    <rect x="1040" y="414" width="24" height="24" fill="#ffb04d"/>
    <rect x="1064" y="414" width="24" height="24" fill="#ffb04d"/>
    <rect x="1088" y="414" width="24" height="24" fill="#ffb04d"/>
    <rect x="1112" y="414" width="24" height="24" fill="#ffb04d"/>
    <rect x="1136" y="414" width="24" height="24" fill="#ffb04d"/>
    <rect x="1160" y="414" width="24" height="24" fill="#ffb04d"/>
    <rect x="896" y="438" width="24" height="24" fill="#ffb04d"/>
    <rect x="920" y="438" width="24" height="24" fill="#ffb04d"/>
    <rect x="1016" y="438" width="24" height="24" fill="#ffb04d"/>
    <rect x="1040" y="438" width="24" height="24" fill="#ffb04d"/>
    <rect x="1112" y="438" width="24" height="24" fill="#ffb04d"/>
    <rect x="1136" y="438" width="24" height="24" fill="#ffb04d"/>
    <rect x="896" y="462" width="24" height="24" fill="#ffb04d"/>
    <rect x="920" y="462" width="24" height="24" fill="#ffb04d"/>
    <rect x="1016" y="462" width="24" height="24" fill="#ffb04d"/>
    <rect x="1040" y="462" width="24" height="24" fill="#ffb04d"/>
</svg>